<?xml version="1.0" standalone="no"?><!DOCTYPE svg PUBLIC "-//W3C//DTD SVG 1.1//EN" "http://www.w3.org/Graphics/SVG/1.1/DTD/svg11.dtd"><svg t="1526224334511" class="icon" style="" viewBox="0 0 1024 1024" version="1.1" xmlns="http://www.w3.org/2000/svg" p-id="2639" xmlns:xlink="http://www.w3.org/1999/xlink" width="200" height="200"><defs><style type="text/css"></style></defs><path d="M487.3 93.8C239.7 93.8 39 294.5 39 542.2c0 247.6 200.7 448.3 448.3 448.3s448.3-200.7 448.3-448.3H487.3V93.8z" fill="#429BCF" p-id="2640"></path><path d="M537.6 41v448.3h448.3C985.9 241.7 785.2 41 537.6 41z" fill="#FFD858" p-id="2641"></path><path d="M487.3 542.2V93.8C239.7 93.8 39 294.5 39 542.2c0 247.6 200.7 448.3 448.3 448.3V542.2z" fill="#83C6EF" p-id="2642"></path><path d="M894.1 217.6L537.6 489.2v0.1h448.3c0-102.2-34.2-196.3-91.8-271.7z" fill="#FDC223" p-id="2643"></path></svg>