<?xml version="1.0" standalone="no"?><!DOCTYPE svg PUBLIC "-//W3C//DTD SVG 1.1//EN" "http://www.w3.org/Graphics/SVG/1.1/DTD/svg11.dtd"><svg t="1524638456368" class="icon" style="" viewBox="0 0 1024 1024" version="1.1" xmlns="http://www.w3.org/2000/svg" p-id="2642" xmlns:xlink="http://www.w3.org/1999/xlink" width="64" height="64"><defs><style type="text/css"></style></defs><path d="M511 510.6m-422.1 0a422.1 422.1 0 1 0 844.2 0 422.1 422.1 0 1 0-844.2 0Z" fill="#83C6EF" p-id="2643"></path><path d="M512.3 88.6v844.1c232.5-0.7 420.8-189.4 420.8-422S744.8 89.3 512.3 88.6z" fill="#429BCF" p-id="2644"></path><path d="M511 510.6m-343.8 0a343.8 343.8 0 1 0 687.6 0 343.8 343.8 0 1 0-687.6 0Z" fill="#FFFFFF" p-id="2645"></path><path d="M512.3 166.8v687.5c189.3-0.7 342.5-154.3 342.5-343.8S701.6 167.6 512.3 166.8z" fill="#D2EDF7" p-id="2646"></path><path d="M510.5 227h-1.9c-17.5 0-31.8-14.3-31.8-31.8v-149c0-17.5 14.3-31.8 31.8-31.8h1.9c17.5 0 31.8 14.3 31.8 31.8v149c0.1 17.4-14.3 31.8-31.8 31.8zM510.5 1009.8h-1.9c-17.5 0-31.8-14.3-31.8-31.8V829c0-17.5 14.3-31.8 31.8-31.8h1.9c17.5 0 31.8 14.3 31.8 31.8v149c0.1 17.4-14.3 31.8-31.8 31.8zM797.3 511.6v-1.9c0-17.5 14.3-31.8 31.8-31.8h149c17.5 0 31.8 14.3 31.8 31.8v1.9c0 17.5-14.3 31.8-31.8 31.8h-149c-17.5 0-31.8-14.3-31.8-31.8zM12.8 511.6v-1.9c0-17.5 14.3-31.8 31.8-31.8h149c17.5 0 31.8 14.3 31.8 31.8v1.9c0 17.5-14.3 31.8-31.8 31.8h-149c-17.5 0-31.8-14.3-31.8-31.8z" fill="#2D416C" p-id="2647"></path><path d="M511 510.6m-106.5 0a106.5 106.5 0 1 0 213 0 106.5 106.5 0 1 0-213 0Z" fill="#83C6EF" p-id="2648"></path><path d="M511 404.1c-0.5 0-0.9 0.1-1.4 0.1V617c0.5 0 0.9 0.1 1.4 0.1 58.8 0 106.5-47.7 106.5-106.5S569.8 404.1 511 404.1z" fill="#429BCF" p-id="2649"></path><path d="M653.1 532.2l-282.5-0.8c-10.9 0-19.8-8.9-19.8-19.9 0-10.9 8.9-19.8 19.8-19.8h0.1l282.4 0.8c10.9 0 19.8 8.9 19.8 19.9 0 11-8.9 19.8-19.8 19.8z" fill="#C11B16" p-id="2650"></path><path d="M511.5 673c-11 0-19.8-8.9-19.8-19.9l0.8-282.4c0-10.9 8.9-19.8 19.8-19.8h0.1c10.9 0 19.8 8.9 19.8 19.9l-0.8 282.4c-0.1 11-9 19.8-19.9 19.8z" fill="#C11B16" p-id="2651"></path></svg>